<mxfile host="Electron" agent="Mozilla/5.0 (Windows NT 10.0; Win64; x64) AppleWebKit/537.36 (KHTML, like Gecko) draw.io/25.0.2 Chrome/128.0.6613.186 Electron/32.2.5 Safari/537.36" version="25.0.2">
  <diagram name="Seite-1" id="Jm_MjjvINf7hYmUVN7ND">
    <mxGraphModel dx="3243" dy="1196" grid="1" gridSize="10" guides="1" tooltips="1" connect="1" arrows="1" fold="1" page="1" pageScale="1" pageWidth="1169" pageHeight="1654" math="0" shadow="0">
      <root>
        <mxCell id="0" />
        <mxCell id="1" parent="0" />
        <mxCell id="eQQXIZosBEmXn-Ig787i-17" value="&lt;div&gt;&lt;span style=&quot;background-color: initial;&quot;&gt;&lt;font style=&quot;font-size: 14px;&quot;&gt;&lt;b&gt;NOTIFICATION FAILURE OPTIONS:&lt;/b&gt;&lt;/font&gt;&lt;/span&gt;&lt;br&gt;&lt;/div&gt;&lt;div&gt;&lt;span style=&quot;font-size: 14px;&quot;&gt;down, unreachable&lt;/span&gt;&lt;/div&gt;" style="rounded=0;whiteSpace=wrap;html=1;fontStyle=0;align=left;fillColor=#f5f5f5;fontColor=#333333;strokeColor=#666666;" vertex="1" parent="1">
          <mxGeometry x="-80" y="210" width="240" height="70" as="geometry" />
        </mxCell>
        <mxCell id="eQQXIZosBEmXn-Ig787i-19" value="&lt;font style=&quot;font-size: 30px;&quot;&gt;Host Dependencies&lt;/font&gt;" style="text;html=1;align=center;verticalAlign=middle;resizable=0;points=[];autosize=1;strokeColor=none;fillColor=none;" vertex="1" parent="1">
          <mxGeometry x="120" y="10" width="290" height="50" as="geometry" />
        </mxCell>
        <mxCell id="eQQXIZosBEmXn-Ig787i-21" value="Host A" style="rounded=1;whiteSpace=wrap;html=1;fillColor=#fff2cc;strokeColor=#d6b656;fontSize=14;fontStyle=1" vertex="1" parent="1">
          <mxGeometry x="100" y="110" width="140" height="60" as="geometry" />
        </mxCell>
        <mxCell id="eQQXIZosBEmXn-Ig787i-22" value="Host A" style="rounded=1;whiteSpace=wrap;html=1;fillColor=#fff2cc;strokeColor=#d6b656;fontSize=14;fontStyle=1" vertex="1" parent="1">
          <mxGeometry x="290" y="110" width="140" height="60" as="geometry" />
        </mxCell>
        <mxCell id="eQQXIZosBEmXn-Ig787i-25" style="edgeStyle=orthogonalEdgeStyle;rounded=0;orthogonalLoop=1;jettySize=auto;html=1;entryX=0.5;entryY=1;entryDx=0;entryDy=0;" edge="1" parent="1" source="eQQXIZosBEmXn-Ig787i-23" target="eQQXIZosBEmXn-Ig787i-21">
          <mxGeometry relative="1" as="geometry" />
        </mxCell>
        <mxCell id="eQQXIZosBEmXn-Ig787i-23" value="Host B" style="rounded=1;whiteSpace=wrap;html=1;fillColor=#d5e8d4;strokeColor=#82b366;fontSize=14;fontStyle=1" vertex="1" parent="1">
          <mxGeometry x="100" y="390" width="140" height="60" as="geometry" />
        </mxCell>
        <mxCell id="eQQXIZosBEmXn-Ig787i-26" style="edgeStyle=orthogonalEdgeStyle;rounded=0;orthogonalLoop=1;jettySize=auto;html=1;entryX=0.5;entryY=1;entryDx=0;entryDy=0;" edge="1" parent="1" source="eQQXIZosBEmXn-Ig787i-24" target="eQQXIZosBEmXn-Ig787i-23">
          <mxGeometry relative="1" as="geometry" />
        </mxCell>
        <mxCell id="eQQXIZosBEmXn-Ig787i-27" style="edgeStyle=orthogonalEdgeStyle;rounded=0;orthogonalLoop=1;jettySize=auto;html=1;entryX=0.5;entryY=1;entryDx=0;entryDy=0;" edge="1" parent="1" source="eQQXIZosBEmXn-Ig787i-24" target="eQQXIZosBEmXn-Ig787i-22">
          <mxGeometry relative="1" as="geometry" />
        </mxCell>
        <mxCell id="eQQXIZosBEmXn-Ig787i-24" value="Host C" style="rounded=1;whiteSpace=wrap;html=1;fillColor=#dae8fc;strokeColor=#6c8ebf;fontSize=14;fontStyle=1" vertex="1" parent="1">
          <mxGeometry x="290" y="590" width="140" height="60" as="geometry" />
        </mxCell>
        <mxCell id="eQQXIZosBEmXn-Ig787i-28" value="&lt;div&gt;&lt;span style=&quot;background-color: initial;&quot;&gt;&lt;font style=&quot;font-size: 14px;&quot;&gt;&lt;b&gt;NOTIFICATION FAILURE OPTIONS:&lt;/b&gt;&lt;/font&gt;&lt;/span&gt;&lt;br&gt;&lt;/div&gt;&lt;div&gt;&lt;span style=&quot;font-size: 14px;&quot;&gt;down, unreachable&lt;/span&gt;&lt;/div&gt;" style="rounded=0;whiteSpace=wrap;html=1;fontStyle=0;align=left;fillColor=#f5f5f5;fontColor=#333333;strokeColor=#666666;" vertex="1" parent="1">
          <mxGeometry x="-80" y="510" width="240" height="70" as="geometry" />
        </mxCell>
        <mxCell id="eQQXIZosBEmXn-Ig787i-29" value="&lt;div&gt;&lt;span style=&quot;background-color: initial;&quot;&gt;&lt;font style=&quot;font-size: 14px;&quot;&gt;&lt;b&gt;NOTIFICATION FAILURE OPTIONS:&lt;/b&gt;&lt;/font&gt;&lt;/span&gt;&lt;br&gt;&lt;/div&gt;&lt;div&gt;&lt;span style=&quot;font-size: 14px;&quot;&gt;down&lt;/span&gt;&lt;/div&gt;" style="rounded=0;whiteSpace=wrap;html=1;fontStyle=0;align=left;fillColor=#f5f5f5;fontColor=#333333;strokeColor=#666666;" vertex="1" parent="1">
          <mxGeometry x="370" y="350" width="240" height="70" as="geometry" />
        </mxCell>
      </root>
    </mxGraphModel>
  </diagram>
</mxfile>
